<svg width="50" height="50" xmlns="http://www.w3.org/2000/svg" data-name="Layer 1">

 <title>notebook</title>
 <g>
  <title>Layer 1</title>
  <path stroke="null" id="svg_1" fill-rule="evenodd" d="m15.03965,7.52144l25.35071,0l0,30.52215c-0.04443,0.74639 -1.01,0.76416 -2.05554,0.71677l-23.65059,0c-2.3695,0.21622 -1.52537,3.37062 0,3.20475l24.6132,0l0,-1.08701l2.05258,0l0,1.84229a1.18475,1.18475 0 0 1 -1.18475,1.18475l-25.37736,0c-3.55425,0.05035 -4.72419,-0.13921 -4.72419,-2.73974l0,-3.76751l-2.71308,0c-0.75824,0 -1.35062,-0.69012 -1.35062,-1.53721s0.59238,-1.53721 1.35062,-1.53721l2.71308,0l0,-2.45243l-2.71308,0c-0.75824,0 -1.35062,-0.68716 -1.35062,-1.53721s0.59238,-1.53425 1.35062,-1.53425l2.71308,0l0,-2.4554l-2.71308,0c-0.75824,0 -1.35062,-0.68716 -1.35062,-1.53425s0.59238,-1.53721 1.35062,-1.53721l2.71308,0l0,-2.43763l-2.71308,0c-0.75824,0 -1.35062,-0.70196 -1.35062,-1.55202s0.59238,-1.53721 1.35062,-1.53721l2.71308,0l0,-2.45243l-2.71308,0c-0.75824,0 -1.35062,-0.67827 -1.35062,-1.53425s0.59238,-1.53721 1.35062,-1.53721l2.71308,0c-0.00592,-3.93041 -0.05628,-4.85452 4.97595,-4.7005zm4.75974,12.39842a0.68123,0.68123 0 0 1 0,-1.36246l10.01411,0a0.68123,0.68123 0 1 1 0,1.36246l-10.01411,0zm0,-3.5898a0.68419,0.68419 0 0 1 0,-1.36543l11.81197,0a0.68419,0.68419 0 1 1 0,1.36543l-11.81197,0zm-1.74751,-4.38062l15.30994,0a0.99223,0.99223 0 0 1 0.98631,0.98631l0,9.0278a0.99815,0.99815 0 0 1 -0.98631,0.98927l-15.30994,0a0.99223,0.99223 0 0 1 -0.98631,-0.98927l0,-9.04261a0.98927,0.98927 0 0 1 0.98631,-0.9715z" class="cls-1"/>
 </g>
</svg>