<svg width="40" height="40" xmlns="http://www.w3.org/2000/svg" xml:space="preserve" enable-background="new 0 0 122.88 122.267" version="1.1">

 <g>
  <title>Layer 1</title>
  <g stroke="null" fill="white" id="svg_1">
   <path stroke="null" fill="#232323" id="svg_2" d="m15.12994,17.60726c0.70949,1.25107 1.526,2.45507 2.58518,3.55266c1.06398,1.1028 2.38144,2.10776 4.09455,2.95974l0.00171,0.00084l0.00034,-0.00084c0.12485,0.06237 0.2437,0.06086 0.35535,0.01984c0.1619,-0.05934 0.33048,-0.19114 0.49443,-0.35068c0.12502,-0.12205 0.28177,-0.32344 0.45122,-0.54182c0.65959,-0.84963 1.47507,-1.89981 2.62634,-1.37732c0.02435,0.01093 0.04733,0.0237 0.06894,0.03799l3.83696,2.16054c0.01372,0.00773 0.02693,0.01597 0.03944,0.02471c0.50867,0.34227 0.71635,0.86946 0.71858,1.45969c0.0024,0.60872 -0.22792,1.29007 -0.56149,1.86618c-0.4399,0.75935 -1.09537,1.26116 -1.84551,1.60124c-0.71515,0.32412 -1.50885,0.4966 -2.27528,0.60654c-1.19861,0.17231 -2.32862,0.06287 -3.47938,-0.28444c-1.12332,-0.33908 -2.25968,-0.90527 -3.49859,-1.65756l-0.09021,-0.0548c-0.57041,-0.34631 -1.18438,-0.71884 -1.78171,-1.16063c-2.20634,-1.63234 -4.45316,-3.98806 -5.91004,-6.57342c-1.22639,-2.17635 -1.89747,-4.52366 -1.53166,-6.76187c0.20048,-1.22821 0.74088,-2.34311 1.67246,-3.08161c0.81668,-0.64773 1.91874,-0.99857 3.33532,-0.87467c0.16687,0.01412 0.3075,0.10742 0.38673,0.23855l0.00103,-0.0005l2.45656,4.08002c0.36186,0.45692 0.40199,0.91031 0.20631,1.36101c-0.16172,0.37287 -0.49598,0.71463 -0.93913,1.0369c-0.1348,0.10927 -0.29292,0.22275 -0.45602,0.33975c-0.54846,0.39354 -1.1758,0.84357 -0.96246,1.37396l0,0zm1.86043,4.22476c-1.13258,-1.17374 -1.9954,-2.44465 -2.7397,-3.75842c-0.01303,-0.02068 -0.0247,-0.04253 -0.03464,-0.06556c-0.54434,-1.25393 0.43218,-1.95427 1.28505,-2.56569c0.14492,-0.10389 0.2852,-0.20459 0.41177,-0.30747l0.00034,0.0005c0.00737,-0.00605 0.01509,-0.01194 0.02315,-0.01765c0.31607,-0.22762 0.54382,-0.44499 0.63078,-0.64504c0.04956,-0.11415 0.03121,-0.23972 -0.07992,-0.38077c-0.01904,-0.02169 -0.03653,-0.04556 -0.05196,-0.07111l-2.33891,-3.88417c-1.00653,-0.04051 -1.78685,0.22207 -2.36395,0.67983c-0.72699,0.57645 -1.15299,1.47247 -1.31609,2.47104c-0.32671,1.99949 0.29429,4.13448 1.42207,6.136c1.38537,2.45826 3.5286,4.7032 5.63616,6.26208c0.5795,0.42868 1.16208,0.78221 1.70333,1.1107l0.09021,0.0548c1.16928,0.70993 2.23241,1.24166 3.26741,1.554c1.00773,0.30411 1.99523,0.4001 3.04052,0.24981c0.68754,-0.09868 1.39138,-0.24964 2.00106,-0.52601c0.57469,-0.26057 1.07153,-0.63629 1.39498,-1.19425c0.25656,-0.4433 0.43389,-0.95032 0.43235,-1.3822c-0.00103,-0.27402 -0.08095,-0.5092 -0.27526,-0.64621l-3.81586,-2.14827c-0.42206,-0.18173 -0.96537,0.51795 -1.4051,1.08431c-0.18934,0.24409 -0.36444,0.46936 -0.54125,0.64167c-0.2533,0.24645 -0.53474,0.45776 -0.85098,0.57342c-0.36632,0.13432 -0.75374,0.1402 -1.15848,-0.0622l0.00034,-0.00067c-1.8203,-0.90527 -3.22642,-1.97983 -4.36741,-3.16248l0,0z"/>
  </g>
 </g>
</svg>