<svg width="40" height="40" xmlns="http://www.w3.org/2000/svg" clip-rule="evenodd" fill-rule="evenodd" image-rendering="optimizeQuality" text-rendering="geometricPrecision" shape-rendering="geometricPrecision">

 <g>
  <title>Layer 1</title>
  <path stroke="null" fill="#333333" id="svg_1" d="m32.22724,12.74922c-0.85911,0.37514 -1.78464,0.62438 -2.75111,0.73553c0.9902,-0.5789 1.74751,-1.49633 2.10893,-2.58846c-0.92553,0.53427 -1.95411,0.92627 -3.04396,1.13591c-0.87635,-0.90898 -2.12102,-1.47398 -3.49984,-1.47398c-2.64759,0 -4.79106,2.09372 -4.79106,4.67673c0,0.36459 0.04141,0.7212 0.12251,1.06518c-3.98373,-0.19705 -7.51544,-2.05882 -9.87972,-4.89146a4.79884,4.68475 0 0 0 -0.64864,2.35266c0,1.6218 0.84356,3.05624 2.13051,3.89283c-0.78535,-0.02274 -1.52411,-0.23662 -2.17279,-0.58314l0,0.05853c0,2.26807 1.65137,4.16057 3.8457,4.58832c-0.40195,0.10651 -0.82632,0.16547 -1.26362,0.16547c-0.30964,0 -0.60811,-0.03115 -0.90483,-0.08377c0.61282,1.85753 2.38195,3.21155 4.47711,3.25112c-1.64275,1.25635 -3.70596,2.0045 -5.95514,2.0045c-0.38815,0 -0.76637,-0.02317 -1.14414,-0.06737c2.1262,1.33171 4.64486,2.10303 7.35073,2.10303c8.81532,0 13.64005,-7.13172 13.64005,-13.31532c0,-0.20547 -0.00475,-0.40459 -0.01336,-0.60584c0.9363,-0.65386 1.74795,-1.47907 2.39057,-2.41839l0.00215,-0.0021l-0.00004,0.00004z"/>
 </g>
</svg>