<svg xmlns="http://www.w3.org/2000/svg" xmlns:xlink="http://www.w3.org/1999/xlink" width="40" height="40" viewBox="0 0 40 40"><defs><linearGradient id="a" x1="0.5" x2="0.5" y2="1" gradientUnits="objectBoundingBox"><stop offset="0" stop-color="#64ff80"/><stop offset="1" stop-color="#04b622"/></linearGradient></defs><rect width="40" height="40" fill="rgba(255,255,255,0)"/><path d="M0,20A20,20,0,1,1,20,40,20,20,0,0,1,0,20Z" fill="url(#a)"/><g transform="translate(10 10)"><path d="M0,18v0l1.271-4.621A8.916,8.916,0,0,1,9.038,0a8.925,8.925,0,0,1,6.34,2.616A8.844,8.844,0,0,1,18,8.926,8.972,8.972,0,0,1,4.751,16.76L0,18Zm4.972-2.855h0l.271.16a7.457,7.457,0,0,0,11.244-6.38A7.433,7.433,0,0,0,9.041,1.507,7.443,7.443,0,0,0,1.589,8.919a7.369,7.369,0,0,0,1.139,3.946l.177.281-.752,2.736,2.819-.736Zm6.394-1.936a2.82,2.82,0,0,1-.866-.131,12.982,12.982,0,0,1-1.277-.469A9.67,9.67,0,0,1,5.437,9.3L5.4,9.244a4.243,4.243,0,0,1-.914-2.306,2.451,2.451,0,0,1,.74-1.812l.044-.047a.817.817,0,0,1,.6-.279c.179,0,.315,0,.429.008h.05c.131,0,.294,0,.454.382.059.141.144.348.235.568.2.474.417,1.011.455,1.087a.411.411,0,0,1,.019.391l-.03.061a1.294,1.294,0,0,1-.194.31c-.037.043-.075.089-.114.136-.076.092-.155.187-.222.254-.108.107-.231.229-.1.455A6.664,6.664,0,0,0,8.095,10a5.813,5.813,0,0,0,1.653,1.04c.063.027.112.048.148.066a.56.56,0,0,0,.244.072.31.31,0,0,0,.241-.128c.1-.118.555-.643.709-.874A.31.31,0,0,1,11.354,10a.747.747,0,0,1,.24.057c.2.073,1.274.6,1.53.725l.123.06a.721.721,0,0,1,.307.2,1.864,1.864,0,0,1-.13,1.06,2.3,2.3,0,0,1-1.512,1.059A3.664,3.664,0,0,1,11.366,13.209Z" transform="translate(1 1)" fill="#fff"/></g></svg>